<?xml version="1.0" encoding="UTF-8" standalone="no"?>
<!-- Created with Inkscape (http://www.inkscape.org/) -->

<svg
   xmlns:dc="http://purl.org/dc/elements/1.1/"
   xmlns:cc="http://creativecommons.org/ns#"
   xmlns:rdf="http://www.w3.org/1999/02/22-rdf-syntax-ns#"
   xmlns:svg="http://www.w3.org/2000/svg"
   xmlns="http://www.w3.org/2000/svg"
   xmlns:sodipodi="http://sodipodi.sourceforge.net/DTD/sodipodi-0.dtd"
   xmlns:inkscape="http://www.inkscape.org/namespaces/inkscape"
   width="210mm"
   height="297mm"
   viewBox="0 0 210 297"
   version="1.1"
   id="svg8"
   inkscape:version="0.92.4 (5da689c313, 2019-01-14)"
   sodipodi:docname="drawing.svg">
  <defs
     id="defs2" />
  <sodipodi:namedview
     id="base"
     pagecolor="#ffffff"
     bordercolor="#666666"
     borderopacity="1.0"
     inkscape:pageopacity="0.0"
     inkscape:pageshadow="2"
     inkscape:zoom="0.35"
     inkscape:cx="400"
     inkscape:cy="560"
     inkscape:document-units="mm"
     inkscape:current-layer="layer1"
     showgrid="false"
     inkscape:window-width="1920"
     inkscape:window-height="1001"
     inkscape:window-x="-9"
     inkscape:window-y="-9"
     inkscape:window-maximized="1" />
  <metadata
     id="metadata5">
    <rdf:RDF>
      <cc:Work
         rdf:about="">
        <dc:format>image/svg+xml</dc:format>
        <dc:type
           rdf:resource="http://purl.org/dc/dcmitype/StillImage" />
        <dc:title></dc:title>
      </cc:Work>
    </rdf:RDF>
  </metadata>
  <g
     inkscape:label="Layer 1"
     inkscape:groupmode="layer"
     id="layer1">
    <path
       id="path13"
       inkscape:label="part"
       style="stroke:#000000;stroke-width:1;fill:none"
       d="M 48.1999998093,178.499999523 L 65.071666444,178.499999523 L 65.071666444,175.399999619 L 80.0616664442,175.399999619 L 80.0616664442,178.499999523 L 96.9383330789,178.499999523 L 96.9383330789,175.399999619 L 111.928333079,175.399999619 L 111.928333079,178.499999523 L 128.804999714,178.499999523 L 128.804999714,175.399999619 L 143.794999714,175.399999619 L 143.794999714,178.499999523 L 160.671666349,178.499999523 L 160.671666349,175.399999619 L 175.661666349,175.399999619 L 175.661666349,178.499999523 L 192.538332984,178.499999523 L 192.538332984,175.399999619 L 207.528332984,175.399999619 L 207.528332984,178.499999523 L 224.399999619,178.499999523 " />
    <path
       id="path15"
       inkscape:label="part"
       style="stroke:#000000;stroke-width:1;fill:none"
       d="M 224.399999619,178.499999523 L 224.399999619,190.994999523 L 221.299999714,190.994999523 L 221.299999714,206.004999523 L 224.399999619,206.004999523 L 224.399999619,218.499999523 " />
    <path
       id="path17"
       inkscape:label="part"
       style="stroke:#000000;stroke-width:1;fill:none"
       d="M 224.399999619,218.499999523 L 207.528332984,218.499999523 L 207.528332984,221.599999428 L 192.538332984,221.599999428 L 192.538332984,218.499999523 L 175.661666349,218.499999523 L 175.661666349,221.599999428 L 160.671666349,221.599999428 L 160.671666349,218.499999523 L 143.794999714,218.499999523 L 143.794999714,221.599999428 L 128.804999714,221.599999428 L 128.804999714,218.499999523 L 111.928333079,218.499999523 L 111.928333079,221.599999428 L 96.9383330789,221.599999428 L 96.9383330789,218.499999523 L 80.0616664442,218.499999523 L 80.0616664442,221.599999428 L 65.071666444,221.599999428 L 65.071666444,218.499999523 L 48.1999998093,218.499999523 " />
    <path
       id="path19"
       inkscape:label="part"
       style="stroke:#000000;stroke-width:1;fill:none"
       d="M 48.1999998093,218.499999523 L 48.1999998093,206.004999523 L 51.2999997139,206.004999523 L 51.2999997139,190.994999523 L 48.1999998093,190.994999523 L 48.1999998093,178.499999523 " />
    <path
       id="path21"
       inkscape:label="part"
       style="stroke:#000000;stroke-width:1;fill:none"
       d="M 3.09999990463,225.699999332 L 16.8716666348,225.699999332 L 16.8716666348,225.699999332 L 31.861666635,225.699999332 L 31.861666635,225.699999332 L 48.7383332696,225.699999332 L 48.7383332696,225.699999332 L 63.7283332699,225.699999332 L 63.7283332699,225.699999332 L 80.6049999045,225.699999332 L 80.6049999045,225.699999332 L 95.5949999047,225.699999332 L 95.5949999047,225.699999332 L 112.471666539,225.699999332 L 112.471666539,225.699999332 L 127.46166654,225.699999332 L 127.46166654,225.699999332 L 144.338333174,225.699999332 L 144.338333174,225.699999332 L 159.328333174,225.699999332 L 159.328333174,225.699999332 L 173.099999905,225.699999332 " />
    <path
       id="path23"
       inkscape:label="part"
       style="stroke:#000000;stroke-width:1;fill:none"
       d="M 129.824999928,222.599999428 L 129.824999928,245.694999333 L 132.924999833,245.694999333 L 132.924999833,222.599999428 L 129.824999928,222.599999428 " />
    <path
       id="path25"
       inkscape:label="part"
       style="stroke:#000000;stroke-width:1;fill:none"
       d="M 86.5499999523,222.599999428 L 86.5499999523,245.694999333 L 89.6499998569,245.694999333 L 89.6499998569,222.599999428 L 86.5499999523,222.599999428 " />
    <path
       id="path27"
       inkscape:label="part"
       style="stroke:#000000;stroke-width:1;fill:none"
       d="M 43.2749999762,222.599999428 L 43.2749999762,245.694999333 L 46.3749998808,245.694999333 L 46.3749998808,222.599999428 L 43.2749999762,222.599999428 " />
    <path
       id="path29"
       inkscape:label="part"
       style="stroke:#000000;stroke-width:1;fill:none"
       d="M 173.099999905,225.699999332 L 173.099999905,238.204999332 L 173.099999905,238.204999332 L 173.099999905,253.194999333 L 173.099999905,253.194999333 L 173.099999905,265.699999332 " />
    <path
       id="path31"
       inkscape:label="part"
       style="stroke:#000000;stroke-width:1;fill:none"
       d="M 173.099999905,265.699999332 L 159.328333174,265.699999332 L 159.328333174,265.699999332 L 144.338333174,265.699999332 L 144.338333174,265.699999332 L 127.46166654,265.699999332 L 127.46166654,265.699999332 L 112.471666539,265.699999332 L 112.471666539,265.699999332 L 95.5949999047,265.699999332 L 95.5949999047,265.699999332 L 80.6049999045,265.699999332 L 80.6049999045,265.699999332 L 63.7283332699,265.699999332 L 63.7283332699,265.699999332 L 48.7383332696,265.699999332 L 48.7383332696,265.699999332 L 31.861666635,265.699999332 L 31.861666635,265.699999332 L 16.8716666348,265.699999332 L 16.8716666348,265.699999332 L 3.09999990463,265.699999332 " />
    <path
       id="path33"
       inkscape:label="part"
       style="stroke:#000000;stroke-width:1;fill:none"
       d="M 3.09999990463,265.699999332 L 3.09999990463,253.194999333 L 3.09999990463,253.194999333 L 3.09999990463,238.204999332 L 3.09999990463,238.204999332 L 3.09999990463,225.699999332 " />
    <path
       id="path35"
       inkscape:label="part"
       style="stroke:#000000;stroke-width:1;fill:none"
       d="M 180.299999714,225.699999332 L 194.071666444,225.699999332 L 194.071666444,225.699999332 L 209.061666444,225.699999332 L 209.061666444,225.699999332 L 225.938333079,225.699999332 L 225.938333079,225.699999332 L 240.928333079,225.699999332 L 240.928333079,225.699999332 L 257.804999714,225.699999332 L 257.804999714,225.699999332 L 272.794999714,225.699999332 L 272.794999714,225.699999332 L 289.671666349,225.699999332 L 289.671666349,225.699999332 L 304.661666349,225.699999332 L 304.661666349,225.699999332 L 321.538332984,225.699999332 L 321.538332984,225.699999332 L 336.528332984,225.699999332 L 336.528332984,225.699999332 L 350.299999714,225.699999332 " />
    <path
       id="path37"
       inkscape:label="part"
       style="stroke:#000000;stroke-width:1;fill:none"
       d="M 307.024999738,222.599999428 L 307.024999738,245.694999333 L 310.124999642,245.694999333 L 310.124999642,222.599999428 L 307.024999738,222.599999428 " />
    <path
       id="path39"
       inkscape:label="part"
       style="stroke:#000000;stroke-width:1;fill:none"
       d="M 263.749999762,222.599999428 L 263.749999762,245.694999333 L 266.849999666,245.694999333 L 266.849999666,222.599999428 L 263.749999762,222.599999428 " />
    <path
       id="path41"
       inkscape:label="part"
       style="stroke:#000000;stroke-width:1;fill:none"
       d="M 220.474999785,222.599999428 L 220.474999785,245.694999333 L 223.57499969,245.694999333 L 223.57499969,222.599999428 L 220.474999785,222.599999428 " />
    <path
       id="path43"
       inkscape:label="part"
       style="stroke:#000000;stroke-width:1;fill:none"
       d="M 350.299999714,225.699999332 L 350.299999714,238.204999332 L 350.299999714,238.204999332 L 350.299999714,253.194999333 L 350.299999714,253.194999333 L 350.299999714,265.699999332 " />
    <path
       id="path45"
       inkscape:label="part"
       style="stroke:#000000;stroke-width:1;fill:none"
       d="M 350.299999714,265.699999332 L 336.528332984,265.699999332 L 336.528332984,265.699999332 L 321.538332984,265.699999332 L 321.538332984,265.699999332 L 304.661666349,265.699999332 L 304.661666349,265.699999332 L 289.671666349,265.699999332 L 289.671666349,265.699999332 L 272.794999714,265.699999332 L 272.794999714,265.699999332 L 257.804999714,265.699999332 L 257.804999714,265.699999332 L 240.928333079,265.699999332 L 240.928333079,265.699999332 L 225.938333079,265.699999332 L 225.938333079,265.699999332 L 209.061666444,265.699999332 L 209.061666444,265.699999332 L 194.071666444,265.699999332 L 194.071666444,265.699999332 L 180.299999714,265.699999332 " />
    <path
       id="path47"
       inkscape:label="part"
       style="stroke:#000000;stroke-width:1;fill:none"
       d="M 180.299999714,265.699999332 L 180.299999714,253.194999333 L 180.299999714,253.194999333 L 180.299999714,238.204999332 L 180.299999714,238.204999332 L 180.299999714,225.699999332 " />
    <path
       id="path49"
       inkscape:label="part"
       style="stroke:#000000;stroke-width:1;fill:none"
       d="M 4.09999990463,51.2999997139 L 16.6049999045,51.2999997139 L 16.6049999045,48.1999998093 L 31.5949999047,48.1999998093 L 31.5949999047,51.2999997139 L 44.0999999046,51.2999997139 " />
    <path
       id="path51"
       inkscape:label="part"
       style="stroke:#000000;stroke-width:1;fill:none"
       d="M 44.0999999046,51.2999997139 L 44.0999999046,68.5049997615 L 47.1999998093,68.5049997615 L 47.1999998093,83.4949997617 L 44.0999999046,83.4949997617 L 44.0999999046,103.804999714 L 47.1999998093,103.804999714 L 47.1999998093,118.794999714 L 44.0999999046,118.794999714 L 44.0999999046,139.104999666 L 47.1999998093,139.104999666 L 47.1999998093,154.094999666 L 44.0999999046,154.094999666 L 44.0999999046,171.299999714 " />
    <path
       id="path53"
       inkscape:label="part"
       style="stroke:#000000;stroke-width:1;fill:none"
       d="M 44.0999999046,171.299999714 L 31.5949999047,171.299999714 L 31.5949999047,174.399999619 L 16.6049999045,174.399999619 L 16.6049999045,171.299999714 L 4.09999990463,171.299999714 " />
    <path
       id="path55"
       inkscape:label="part"
       style="stroke:#000000;stroke-width:1;fill:none"
       d="M 4.09999990463,171.299999714 L 4.09999990463,154.094999666 L 1.0,154.094999666 L 1.0,139.104999666 L 4.09999990463,139.104999666 L 4.09999990463,118.794999714 L 1.0,118.794999714 L 1.0,103.804999714 L 4.09999990463,103.804999714 L 4.09999990463,83.4949997617 L 1.0,83.4949997617 L 1.0,68.5049997615 L 4.09999990463,68.5049997615 L 4.09999990463,51.2999997139 " />
    <path
       id="path57"
       inkscape:label="part"
       style="stroke:#000000;stroke-width:1;fill:none"
       d="M 0.0,310.833332539 L 23.0949999047,310.833332539 L 23.0949999047,313.933332443 L 0.0,313.933332443 L 0.0,310.833332539 " />
    <path
       id="path59"
       inkscape:label="part"
       style="stroke:#000000;stroke-width:1;fill:none"
       d="M 0.0,351.86666584 L 23.0949999047,351.86666584 L 23.0949999047,354.966665745 L 0.0,354.966665745 L 0.0,351.86666584 " />
    <path
       id="path61"
       inkscape:label="part"
       style="stroke:#000000;stroke-width:1;fill:none"
       d="M 3.09999990463,272.899999142 L 15.6049999045,272.899999142 L 15.6049999045,272.899999142 L 30.5949999047,272.899999142 L 30.5949999047,272.899999142 L 43.0999999046,272.899999142 " />
    <path
       id="path63"
       inkscape:label="part"
       style="stroke:#000000;stroke-width:1;fill:none"
       d="M 43.0999999046,272.899999142 L 43.0999999046,290.104999189 L 43.0999999046,290.104999189 L 43.0999999046,305.094999189 L 43.0999999046,305.094999189 L 43.0999999046,325.404999142 L 43.0999999046,325.404999142 L 43.0999999046,340.394999142 L 43.0999999046,340.394999142 L 43.0999999046,360.704999094 L 43.0999999046,360.704999094 L 43.0999999046,375.694999094 L 43.0999999046,375.694999094 L 43.0999999046,392.899999142 " />
    <path
       id="path65"
       inkscape:label="part"
       style="stroke:#000000;stroke-width:1;fill:none"
       d="M 43.0999999046,392.899999142 L 30.5949999047,392.899999142 L 30.5949999047,392.899999142 L 15.6049999045,392.899999142 L 15.6049999045,392.899999142 L 3.09999990463,392.899999142 " />
    <path
       id="path67"
       inkscape:label="part"
       style="stroke:#000000;stroke-width:1;fill:none"
       d="M 3.09999990463,392.899999142 L 3.09999990463,375.694999094 L 3.09999990463,375.694999094 L 3.09999990463,360.704999094 L 3.09999990463,360.704999094 L 3.09999990463,340.394999142 L 3.09999990463,340.394999142 L 3.09999990463,325.404999142 L 3.09999990463,325.404999142 L 3.09999990463,305.094999189 L 3.09999990463,305.094999189 L 3.09999990463,290.104999189 L 3.09999990463,290.104999189 L 3.09999990463,272.899999142 " />
    <path
       id="path69"
       inkscape:label="part"
       style="stroke:#000000;stroke-width:1;fill:none"
       d="M 47.1999998093,310.833332539 L 70.294999714,310.833332539 L 70.294999714,313.933332443 L 47.1999998093,313.933332443 L 47.1999998093,310.833332539 " />
    <path
       id="path71"
       inkscape:label="part"
       style="stroke:#000000;stroke-width:1;fill:none"
       d="M 47.1999998093,351.86666584 L 70.294999714,351.86666584 L 70.294999714,354.966665745 L 47.1999998093,354.966665745 L 47.1999998093,351.86666584 " />
    <path
       id="path73"
       inkscape:label="part"
       style="stroke:#000000;stroke-width:1;fill:none"
       d="M 50.2999997139,272.899999142 L 62.8049997138,272.899999142 L 62.8049997138,272.899999142 L 77.794999714,272.899999142 L 77.794999714,272.899999142 L 90.2999997139,272.899999142 " />
    <path
       id="path75"
       inkscape:label="part"
       style="stroke:#000000;stroke-width:1;fill:none"
       d="M 90.2999997139,272.899999142 L 90.2999997139,290.104999189 L 90.2999997139,290.104999189 L 90.2999997139,305.094999189 L 90.2999997139,305.094999189 L 90.2999997139,325.404999142 L 90.2999997139,325.404999142 L 90.2999997139,340.394999142 L 90.2999997139,340.394999142 L 90.2999997139,360.704999094 L 90.2999997139,360.704999094 L 90.2999997139,375.694999094 L 90.2999997139,375.694999094 L 90.2999997139,392.899999142 " />
    <path
       id="path77"
       inkscape:label="part"
       style="stroke:#000000;stroke-width:1;fill:none"
       d="M 90.2999997139,392.899999142 L 77.794999714,392.899999142 L 77.794999714,392.899999142 L 62.8049997138,392.899999142 L 62.8049997138,392.899999142 L 50.2999997139,392.899999142 " />
    <path
       id="path79"
       inkscape:label="part"
       style="stroke:#000000;stroke-width:1;fill:none"
       d="M 50.2999997139,392.899999142 L 50.2999997139,375.694999094 L 50.2999997139,375.694999094 L 50.2999997139,360.704999094 L 50.2999997139,360.704999094 L 50.2999997139,340.394999142 L 50.2999997139,340.394999142 L 50.2999997139,325.404999142 L 50.2999997139,325.404999142 L 50.2999997139,305.094999189 L 50.2999997139,305.094999189 L 50.2999997139,290.104999189 L 50.2999997139,290.104999189 L 50.2999997139,272.899999142 " />
    <path
       id="path81"
       inkscape:label="part"
       style="stroke:#000000;stroke-width:1;fill:none"
       d="M 94.3999996185,310.833332539 L 117.494999523,310.833332539 L 117.494999523,313.933332443 L 94.3999996185,313.933332443 L 94.3999996185,310.833332539 " />
    <path
       id="path83"
       inkscape:label="part"
       style="stroke:#000000;stroke-width:1;fill:none"
       d="M 94.3999996185,351.86666584 L 117.494999523,351.86666584 L 117.494999523,354.966665745 L 94.3999996185,354.966665745 L 94.3999996185,351.86666584 " />
    <path
       id="path85"
       inkscape:label="part"
       style="stroke:#000000;stroke-width:1;fill:none"
       d="M 97.4999995231,272.899999142 L 110.004999523,272.899999142 L 110.004999523,272.899999142 L 124.994999523,272.899999142 L 124.994999523,272.899999142 L 137.499999523,272.899999142 " />
    <path
       id="path87"
       inkscape:label="part"
       style="stroke:#000000;stroke-width:1;fill:none"
       d="M 137.499999523,272.899999142 L 137.499999523,290.104999189 L 137.499999523,290.104999189 L 137.499999523,305.094999189 L 137.499999523,305.094999189 L 137.499999523,325.404999142 L 137.499999523,325.404999142 L 137.499999523,340.394999142 L 137.499999523,340.394999142 L 137.499999523,360.704999094 L 137.499999523,360.704999094 L 137.499999523,375.694999094 L 137.499999523,375.694999094 L 137.499999523,392.899999142 " />
    <path
       id="path89"
       inkscape:label="part"
       style="stroke:#000000;stroke-width:1;fill:none"
       d="M 137.499999523,392.899999142 L 124.994999523,392.899999142 L 124.994999523,392.899999142 L 110.004999523,392.899999142 L 110.004999523,392.899999142 L 97.4999995232,392.899999142 " />
    <path
       id="path91"
       inkscape:label="part"
       style="stroke:#000000;stroke-width:1;fill:none"
       d="M 97.4999995231,392.899999142 L 97.4999995231,375.694999094 L 97.4999995231,375.694999094 L 97.4999995231,360.704999094 L 97.4999995231,360.704999094 L 97.4999995231,340.394999142 L 97.4999995231,340.394999142 L 97.4999995231,325.404999142 L 97.4999995231,325.404999142 L 97.4999995231,305.094999189 L 97.4999995231,305.094999189 L 97.4999995231,290.104999189 L 97.4999995231,290.104999189 L 97.4999995231,272.899999142 " />
    <path
       id="path93"
       inkscape:label="part"
       style="stroke:#000000;stroke-width:1;fill:none"
       d="M 48.1999998093,48.1999998093 L 65.0616664442,48.1999998093 L 65.0616664442,51.2999997139 L 80.071666444,51.2999997139 L 80.071666444,48.1999998093 L 96.9283330791,48.1999998093 L 96.9283330791,51.2999997139 L 111.938333079,51.2999997139 L 111.938333079,48.1999998093 L 128.794999714,48.1999998093 L 128.794999714,51.2999997139 L 143.804999714,51.2999997139 L 143.804999714,48.1999998093 L 160.661666349,48.1999998093 L 160.661666349,51.2999997139 L 175.671666349,51.2999997139 L 175.671666349,48.1999998093 L 192.528332984,48.1999998093 L 192.528332984,51.2999997139 L 207.538332984,51.2999997139 L 207.538332984,48.1999998093 L 224.399999619,48.1999998093 " />
    <path
       id="path95"
       inkscape:label="part"
       style="stroke:#000000;stroke-width:1;fill:none"
       d="M 224.399999619,48.1999998093 L 224.399999619,68.4949997617 L 221.299999714,68.4949997617 L 221.299999714,83.5049997615 L 224.399999619,83.5049997615 L 224.399999619,103.794999714 L 221.299999714,103.794999714 L 221.299999714,118.804999714 L 224.399999619,118.804999714 L 224.399999619,139.094999666 L 221.299999714,139.094999666 L 221.299999714,154.104999666 L 224.399999619,154.104999666 L 224.399999619,174.399999619 " />
    <path
       id="path97"
       inkscape:label="part"
       style="stroke:#000000;stroke-width:1;fill:none"
       d="M 224.399999619,174.399999619 L 207.538332984,174.399999619 L 207.538332984,171.299999714 L 192.528332984,171.299999714 L 192.528332984,174.399999619 L 175.671666349,174.399999619 L 175.671666349,171.299999714 L 160.661666349,171.299999714 L 160.661666349,174.399999619 L 143.804999714,174.399999619 L 143.804999714,171.299999714 L 128.794999714,171.299999714 L 128.794999714,174.399999619 L 111.938333079,174.399999619 L 111.938333079,171.299999714 L 96.9283330791,171.299999714 L 96.9283330791,174.399999619 L 80.071666444,174.399999619 L 80.071666444,171.299999714 L 65.0616664442,171.299999714 L 65.0616664442,174.399999619 L 48.1999998093,174.399999619 " />
    <path
       id="path99"
       inkscape:label="part"
       style="stroke:#000000;stroke-width:1;fill:none"
       d="M 48.1999998093,174.399999619 L 48.1999998093,154.104999666 L 51.2999997139,154.104999666 L 51.2999997139,139.094999666 L 48.1999998093,139.094999666 L 48.1999998093,118.804999714 L 51.2999997139,118.804999714 L 51.2999997139,103.794999714 L 48.1999998093,103.794999714 L 48.1999998093,83.5049997615 L 51.2999997139,83.5049997615 L 51.2999997139,68.4949997617 L 48.1999998093,68.4949997617 L 48.1999998093,48.1999998093 " />
    <path
       id="path101"
       inkscape:label="part"
       style="stroke:#000000;stroke-width:1;fill:none"
       d="M 228.499999523,51.2999997139 L 241.004999523,51.2999997139 L 241.004999523,48.1999998093 L 255.994999523,48.1999998093 L 255.994999523,51.2999997139 L 268.499999523,51.2999997139 " />
    <path
       id="path103"
       inkscape:label="part"
       style="stroke:#000000;stroke-width:1;fill:none"
       d="M 268.499999523,51.2999997139 L 268.499999523,68.5049997615 L 271.599999428,68.5049997615 L 271.599999428,83.4949997617 L 268.499999523,83.4949997617 L 268.499999523,103.804999714 L 271.599999428,103.804999714 L 271.599999428,118.794999714 L 268.499999523,118.794999714 L 268.499999523,139.104999666 L 271.599999428,139.104999666 L 271.599999428,154.094999666 L 268.499999523,154.094999666 L 268.499999523,171.299999714 " />
    <path
       id="path105"
       inkscape:label="part"
       style="stroke:#000000;stroke-width:1;fill:none"
       d="M 268.499999523,171.299999714 L 255.994999523,171.299999714 L 255.994999523,174.399999619 L 241.004999523,174.399999619 L 241.004999523,171.299999714 L 228.499999523,171.299999714 " />
    <path
       id="path107"
       inkscape:label="part"
       style="stroke:#000000;stroke-width:1;fill:none"
       d="M 228.499999523,171.299999714 L 228.499999523,154.094999666 L 225.399999619,154.094999666 L 225.399999619,139.104999666 L 228.499999523,139.104999666 L 228.499999523,118.794999714 L 225.399999619,118.794999714 L 225.399999619,103.804999714 L 228.499999523,103.804999714 L 228.499999523,83.4949997617 L 225.399999619,83.4949997617 L 225.399999619,68.5049997615 L 228.499999523,68.5049997615 L 228.499999523,51.2999997139 " />
    <path
       id="path109"
       inkscape:label="part"
       style="stroke:#000000;stroke-width:1;fill:none"
       d="M 272.599999428,48.1999998093 L 289.461666063,48.1999998093 L 289.461666063,51.2999997139 L 304.471666063,51.2999997139 L 304.471666063,48.1999998093 L 321.328332698,48.1999998093 L 321.328332698,51.2999997139 L 336.338332697,51.2999997139 L 336.338332697,48.1999998093 L 353.194999333,48.1999998093 L 353.194999333,51.2999997139 L 368.204999332,51.2999997139 L 368.204999332,48.1999998093 L 385.061665967,48.1999998093 L 385.061665967,51.2999997139 L 400.071665967,51.2999997139 L 400.071665967,48.1999998093 L 416.928332602,48.1999998093 L 416.928332602,51.2999997139 L 431.938332602,51.2999997139 L 431.938332602,48.1999998093 L 448.799999237,48.1999998093 " />
    <path
       id="path111"
       inkscape:label="part"
       style="stroke:#000000;stroke-width:1;fill:none"
       d="M 448.799999237,48.1999998093 L 448.799999237,68.4949997617 L 445.699999332,68.4949997617 L 445.699999332,83.5049997615 L 448.799999237,83.5049997615 L 448.799999237,103.794999714 L 445.699999332,103.794999714 L 445.699999332,118.804999714 L 448.799999237,118.804999714 L 448.799999237,139.094999666 L 445.699999332,139.094999666 L 445.699999332,154.104999666 L 448.799999237,154.104999666 L 448.799999237,174.399999619 " />
    <path
       id="path113"
       inkscape:label="part"
       style="stroke:#000000;stroke-width:1;fill:none"
       d="M 448.799999237,174.399999619 L 431.938332602,174.399999619 L 431.938332602,171.299999714 L 416.928332602,171.299999714 L 416.928332602,174.399999619 L 400.071665967,174.399999619 L 400.071665967,171.299999714 L 385.061665967,171.299999714 L 385.061665967,174.399999619 L 368.204999332,174.399999619 L 368.204999332,171.299999714 L 353.194999333,171.299999714 L 353.194999333,174.399999619 L 336.338332697,174.399999619 L 336.338332697,171.299999714 L 321.328332698,171.299999714 L 321.328332698,174.399999619 L 304.471666063,174.399999619 L 304.471666063,171.299999714 L 289.461666063,171.299999714 L 289.461666063,174.399999619 L 272.599999428,174.399999619 " />
    <path
       id="path115"
       inkscape:label="part"
       style="stroke:#000000;stroke-width:1;fill:none"
       d="M 272.599999428,174.399999619 L 272.599999428,154.104999666 L 275.699999332,154.104999666 L 275.699999332,139.094999666 L 272.599999428,139.094999666 L 272.599999428,118.804999714 L 275.699999332,118.804999714 L 275.699999332,103.794999714 L 272.599999428,103.794999714 L 272.599999428,83.5049997615 L 275.699999332,83.5049997615 L 275.699999332,68.4949997617 L 272.599999428,68.4949997617 L 272.599999428,48.1999998093 " />
    <path
       id="path117"
       inkscape:label="part"
       style="stroke:#000000;stroke-width:1;fill:none"
       d="M 48.1999998093,4.09999990463 L 65.071666444,4.09999990463 L 65.071666444,1.0 L 80.0616664442,1.0 L 80.0616664442,4.09999990463 L 96.9383330789,4.09999990463 L 96.9383330789,1.0 L 111.928333079,1.0 L 111.928333079,4.09999990463 L 128.804999714,4.09999990463 L 128.804999714,1.0 L 143.794999714,1.0 L 143.794999714,4.09999990463 L 160.671666349,4.09999990463 L 160.671666349,1.0 L 175.661666349,1.0 L 175.661666349,4.09999990463 L 192.538332984,4.09999990463 L 192.538332984,1.0 L 207.528332984,1.0 L 207.528332984,4.09999990463 L 224.399999619,4.09999990463 " />
    <path
       id="path119"
       inkscape:label="part"
       style="stroke:#000000;stroke-width:1;fill:none"
       d="M 224.399999619,4.09999990463 L 224.399999619,16.5949999047 L 221.299999714,16.5949999047 L 221.299999714,31.6049999045 L 224.399999619,31.6049999045 L 224.399999619,44.0999999046 " />
    <path
       id="path121"
       inkscape:label="part"
       style="stroke:#000000;stroke-width:1;fill:none"
       d="M 224.399999619,44.0999999046 L 207.528332984,44.0999999046 L 207.528332984,47.1999998093 L 192.538332984,47.1999998093 L 192.538332984,44.0999999046 L 175.661666349,44.0999999046 L 175.661666349,47.1999998093 L 160.671666349,47.1999998093 L 160.671666349,44.0999999046 L 143.794999714,44.0999999046 L 143.794999714,47.1999998093 L 128.804999714,47.1999998093 L 128.804999714,44.0999999046 L 111.928333079,44.0999999046 L 111.928333079,47.1999998093 L 96.9383330789,47.1999998093 L 96.9383330789,44.0999999046 L 80.0616664442,44.0999999046 L 80.0616664442,47.1999998093 L 65.071666444,47.1999998093 L 65.071666444,44.0999999046 L 48.1999998093,44.0999999046 " />
    <path
       id="path123"
       inkscape:label="part"
       style="stroke:#000000;stroke-width:1;fill:none"
       d="M 48.1999998093,44.0999999046 L 48.1999998093,31.6049999045 L 51.2999997139,31.6049999045 L 51.2999997139,16.5949999047 L 48.1999998093,16.5949999047 L 48.1999998093,4.09999990463 " />
  </g>
  <g
     id="g126"
     inkscape:groupmode="layer"
     inkscape:label="newlayer" />
</svg>
