<?xml version="1.0" encoding="UTF-8" standalone="no"?>
<!-- Created with Inkscape (http://www.inkscape.org/) -->

<svg
   xmlns:dc="http://purl.org/dc/elements/1.1/"
   xmlns:cc="http://creativecommons.org/ns#"
   xmlns:rdf="http://www.w3.org/1999/02/22-rdf-syntax-ns#"
   xmlns:svg="http://www.w3.org/2000/svg"
   xmlns="http://www.w3.org/2000/svg"
   xmlns:sodipodi="http://sodipodi.sourceforge.net/DTD/sodipodi-0.dtd"
   xmlns:inkscape="http://www.inkscape.org/namespaces/inkscape"
   width="210mm"
   height="297mm"
   viewBox="0 0 210 297"
   version="1.1"
   id="svg8"
   inkscape:version="0.92.4 (5da689c313, 2019-01-14)"
   sodipodi:docname="logo.svg">
  <defs
     id="defs2" />
  <sodipodi:namedview
     id="base"
     pagecolor="#ffffff"
     bordercolor="#666666"
     borderopacity="1.0"
     inkscape:pageopacity="0.0"
     inkscape:pageshadow="2"
     inkscape:zoom="0.35"
     inkscape:cx="400"
     inkscape:cy="560"
     inkscape:document-units="mm"
     inkscape:current-layer="layer1"
     showgrid="false"
     inkscape:window-width="1920"
     inkscape:window-height="1001"
     inkscape:window-x="-9"
     inkscape:window-y="-9"
     inkscape:window-maximized="1" />
  <metadata
     id="metadata5">
    <rdf:RDF>
      <cc:Work
         rdf:about="">
        <dc:format>image/svg+xml</dc:format>
        <dc:type
           rdf:resource="http://purl.org/dc/dcmitype/StillImage" />
        <dc:title></dc:title>
      </cc:Work>
    </rdf:RDF>
  </metadata>
  <g
     inkscape:label="Layer 1"
     inkscape:groupmode="layer"
     id="layer1">
    <path
       style="fill:none;stroke:#000000;stroke-width:0.26458332px;stroke-linecap:butt;stroke-linejoin:miter;stroke-opacity:1"
       d="M 50.648809,19.565476 C 74.029058,6.0668831 173.86905,70.214285 173.86905,70.214285"
       id="path16"
       inkscape:connector-curvature="0" />
    <path
       style="fill:none;stroke:#000000;stroke-width:0.26458332px;stroke-linecap:butt;stroke-linejoin:miter;stroke-opacity:1"
       d="M 50.648809,19.565476 -27.214285,76.261904 -65.383584,218.71166 173.86905,70.214285"
       id="path18"
       inkscape:connector-curvature="0" />
    <path
       style="fill:none;stroke:#000000;stroke-width:0.26458332px;stroke-linecap:butt;stroke-linejoin:miter;stroke-opacity:1"
       d="m -182.94047,129.93452 v 43.08929 c 0,0 155.726185,-96.761906 155.726185,-96.761906 0,0 -32.505953,209.398796 -35.529763,210.910706 -3.023809,1.51191 91.470238,-216.958325 -60.476192,-83.91071 -151.94642,133.04762 -34.77381,195.03571 -34.77381,195.03571 0,0 657.67856,21.16666 246.440476,-54.42858 C -322.79166,268.27382 -380.24405,72.482143 -121.70833,66.434522 136.82738,60.386904 439.96427,-134.64881 136.82738,60.386904 -166.30952,255.42262 -89.202381,599.38094 74.083332,372.59524 237.36905,145.80952 428.62499,112.54762 138.33928,173.77976 -151.94643,235.0119 -250.22024,475.40476 -145.14286,232.74404 -40.065475,-9.9166666 -332.61905,-153.54762 -34.773809,14.273809 263.07142,182.09524 260.04762,370.32737 154.21428,247.10714 48.380951,123.8869 194.27976,458.01785 4.5357142,374.86309 -185.20833,291.70833 -353.02975,464.82142 -205.61905,275.07737 -58.208333,85.333334 -450.5476,-119.52976 -110.36905,73.994046 229.80952,267.51785 507.99999,529.83333 98.273808,295.48809 -311.45239,61.142855 -36.285715,359.74403 -260.04762,198.72619 -483.80951,37.708334 -204.10714,127.66667 -393.85118,106.5 -583.59523,85.333334 244.92857,-16.720238 241.90476,-16.720238 c -3.02381,0 284.99405,208.642858 -3.77976,-2.267857 C -50.648809,-229.89881 137.58333,-21.255952 -43.845239,-37.886904 -225.27381,-54.517856 -308.42857,-217.04762 -225.27381,-46.20238 -142.11905,124.64285 -467.17857,226.69643 -198.81547,214.60119 69.547617,202.50595 81.642856,445.16667 29.482142,213.84524 -22.678571,-17.47619 108.10119,-89.291664 -22.678571,-12.184524 -153.45833,64.922619 312.20833,185.875 312.20833,185.875"
       id="path20"
       inkscape:connector-curvature="0" />
    <path
       style="fill:none;stroke:#000000;stroke-width:0.26458332px;stroke-linecap:butt;stroke-linejoin:miter;stroke-opacity:1"
       d="m 404.43451,-39.39881 c 21.92264,400.65475 26.45833,488.34523 26.45833,488.34523 0,0 392.3393,-28.72618 210.91073,-128.5119 C 460.37499,220.64881 418.04166,219.89285 418.04166,219.89285 c 0,0 209.39882,6.80358 164.79761,-106.58928 C 538.23808,-0.08928571 557.89284,-182.27381 486.07739,-85.511904 414.2619,11.25 404.43451,-39.39881 404.43451,-39.39881 Z"
       id="path24"
       inkscape:connector-curvature="0" />
  </g>
</svg>
